<?xml version="1.0" encoding="UTF-8" standalone="no"?>
<!DOCTYPE svg PUBLIC "-//W3C//DTD SVG 1.1//EN"
 "http://www.w3.org/Graphics/SVG/1.1/DTD/svg11.dtd">
<!-- Generated by graphviz version 12.2.1 (20241206.2353)
 -->
<!-- Title: G Pages: 1 -->
<svg width="409pt" height="98pt"
 viewBox="0.00 0.00 408.50 98.00" xmlns="http://www.w3.org/2000/svg" xmlns:xlink="http://www.w3.org/1999/xlink">
<g id="graph0" class="graph" transform="scale(1 1) rotate(0) translate(4 94)">
<title>G</title>
<polygon fill="white" stroke="none" points="-4,4 -4,-94 404.5,-94 404.5,4 -4,4"/>
<!-- BatteryConfig -->
<g id="node1" class="node">
<title>BatteryConfig</title>
<polygon fill="none" stroke="black" points="95.5,-90 2.25,-90 2.25,-54 95.5,-54 95.5,-90"/>
<text text-anchor="middle" x="48.88" y="-66.95" font-family="Times New Roman,serif" font-size="14.00">BatteryConfig</text>
</g>
<!-- simulate_mission -->
<g id="node2" class="node">
<title>simulate_mission</title>
<polygon fill="none" stroke="black" points="245.75,-63 133.75,-63 133.75,-27 245.75,-27 245.75,-63"/>
<text text-anchor="middle" x="189.75" y="-39.95" font-family="Times New Roman,serif" font-size="14.00">simulate_mission</text>
</g>
<!-- BatteryConfig&#45;&gt;simulate_mission -->
<g id="edge1" class="edge">
<title>BatteryConfig&#45;&gt;simulate_mission</title>
<path fill="none" stroke="black" d="M95.73,-63.08C104.18,-61.44 113.15,-59.7 122.06,-57.97"/>
<polygon fill="black" stroke="black" points="122.64,-61.42 131.78,-56.08 121.3,-54.55 122.64,-61.42"/>
</g>
<!-- summarize_results -->
<g id="node4" class="node">
<title>summarize_results</title>
<polygon fill="none" stroke="black" points="400.5,-63 281.75,-63 281.75,-27 400.5,-27 400.5,-63"/>
<text text-anchor="middle" x="341.12" y="-39.95" font-family="Times New Roman,serif" font-size="14.00">summarize_results</text>
</g>
<!-- simulate_mission&#45;&gt;summarize_results -->
<g id="edge3" class="edge">
<title>simulate_mission&#45;&gt;summarize_results</title>
<path fill="none" stroke="black" d="M245.95,-45C253.8,-45 261.96,-45 270.05,-45"/>
<polygon fill="black" stroke="black" points="269.88,-48.5 279.88,-45 269.88,-41.5 269.88,-48.5"/>
</g>
<!-- MissionConfig -->
<g id="node3" class="node">
<title>MissionConfig</title>
<polygon fill="none" stroke="black" points="97.75,-36 0,-36 0,0 97.75,0 97.75,-36"/>
<text text-anchor="middle" x="48.88" y="-12.95" font-family="Times New Roman,serif" font-size="14.00">MissionConfig</text>
</g>
<!-- MissionConfig&#45;&gt;simulate_mission -->
<g id="edge2" class="edge">
<title>MissionConfig&#45;&gt;simulate_mission</title>
<path fill="none" stroke="black" d="M98.06,-27.37C105.92,-28.9 114.19,-30.5 122.39,-32.1"/>
<polygon fill="black" stroke="black" points="121.54,-35.5 132.02,-33.97 122.88,-28.63 121.54,-35.5"/>
</g>
</g>
</svg>
