<?xml version="1.0" encoding="UTF-8" standalone="no"?>
<!DOCTYPE svg PUBLIC "-//W3C//DTD SVG 1.1//EN"
 "http://www.w3.org/Graphics/SVG/1.1/DTD/svg11.dtd">
<!-- Generated by graphviz version 12.2.1 (20241206.2353)
 -->
<!-- Title: batteryV2.MonteCarloGUI._build_widgets Pages: 1 -->
<svg width="493pt" height="90pt"
 viewBox="0.00 0.00 493.25 90.00" xmlns="http://www.w3.org/2000/svg" xmlns:xlink="http://www.w3.org/1999/xlink">
<g id="graph0" class="graph" transform="scale(1 1) rotate(0) translate(4 86)">
<title>batteryV2.MonteCarloGUI._build_widgets</title>
<!-- Node1 -->
<g id="Node000001" class="node">
<title>Node1</title>
<g id="a_Node000001"><a xlink:title="Builds the primary simulation dashboard.">
<polygon fill="#999999" stroke="#666666" points="132.25,-57 0,-57 0,-25 132.25,-25 132.25,-57"/>
<text text-anchor="start" x="8" y="-43.5" font-family="Helvetica,sans-Serif" font-size="10.00">batteryV2.MonteCarloGUI.</text>
<text text-anchor="middle" x="66.12" y="-31.5" font-family="Helvetica,sans-Serif" font-size="10.00">_build_widgets</text>
</a>
</g>
</g>
<!-- Node2 -->
<g id="Node000002" class="node">
<title>Node2</title>
<g id="a_Node000002"><a xlink:href="classbattery_v2_1_1_monte_carlo_g_u_i.html#a611efd143a0180842632d13d81ce106c" target="_top" xlink:title="Constructs the &quot;Extreme Conditions&quot; dashboard.">
<polygon fill="white" stroke="#666666" points="314,-82 168.25,-82 168.25,-50 314,-50 314,-82"/>
<text text-anchor="start" x="176.25" y="-68.5" font-family="Helvetica,sans-Serif" font-size="10.00">batteryV2.MonteCarloGUI.run</text>
<text text-anchor="middle" x="241.12" y="-56.5" font-family="Helvetica,sans-Serif" font-size="10.00">_extreme_simulation</text>
</a>
</g>
</g>
<!-- Node1&#45;&gt;Node2 -->
<g id="edge1_Node000001_Node000002" class="edge">
<title>Node1&#45;&gt;Node2</title>
<g id="a_edge1_Node000001_Node000002"><a xlink:title=" ">
<path fill="none" stroke="#63b8ff" d="M132.53,-50.45C140.4,-51.59 148.52,-52.76 156.6,-53.93"/>
<polygon fill="#63b8ff" stroke="#63b8ff" points="156.08,-57.39 166.48,-55.36 157.08,-50.46 156.08,-57.39"/>
</a>
</g>
</g>
<!-- Node4 -->
<g id="Node000004" class="node">
<title>Node4</title>
<g id="a_Node000004"><a xlink:href="classbattery_v2_1_1_monte_carlo_g_u_i.html#ad20f02647e50ac7a533c9e72e8071130" target="_top" xlink:title="Executes the standard Monte Carlo simulation.">
<polygon fill="white" stroke="#666666" points="314,-32 168.25,-32 168.25,0 314,0 314,-32"/>
<text text-anchor="start" x="176.25" y="-18.5" font-family="Helvetica,sans-Serif" font-size="10.00">batteryV2.MonteCarloGUI.run</text>
<text text-anchor="middle" x="241.12" y="-6.5" font-family="Helvetica,sans-Serif" font-size="10.00">_simulation</text>
</a>
</g>
</g>
<!-- Node1&#45;&gt;Node4 -->
<g id="edge3_Node000001_Node000004" class="edge">
<title>Node1&#45;&gt;Node4</title>
<g id="a_edge3_Node000001_Node000004"><a xlink:title=" ">
<path fill="none" stroke="#63b8ff" d="M132.53,-31.55C140.4,-30.41 148.52,-29.24 156.6,-28.07"/>
<polygon fill="#63b8ff" stroke="#63b8ff" points="157.08,-31.54 166.48,-26.64 156.08,-24.61 157.08,-31.54"/>
</a>
</g>
</g>
<!-- Node3 -->
<g id="Node000003" class="node">
<title>Node3</title>
<g id="a_Node000003"><a xlink:href="classbattery_v2_1_1_monte_carlo_g_u_i.html#a51e7e587954e3cceaea5ff17ad8aa75d" target="_top" xlink:title="Refreshes the histogram for extreme simulation results.">
<polygon fill="white" stroke="#666666" points="485.25,-82 350,-82 350,-50 485.25,-50 485.25,-82"/>
<text text-anchor="start" x="358" y="-68.5" font-family="Helvetica,sans-Serif" font-size="10.00">batteryV2.MonteCarloGUI.</text>
<text text-anchor="middle" x="417.62" y="-56.5" font-family="Helvetica,sans-Serif" font-size="10.00">_plot_extreme_distributions</text>
</a>
</g>
</g>
<!-- Node2&#45;&gt;Node3 -->
<g id="edge2_Node000002_Node000003" class="edge">
<title>Node2&#45;&gt;Node3</title>
<g id="a_edge2_Node000002_Node000003"><a xlink:title=" ">
<path fill="none" stroke="#63b8ff" d="M314.36,-66C322.33,-66 330.46,-66 338.5,-66"/>
<polygon fill="#63b8ff" stroke="#63b8ff" points="338.25,-69.5 348.25,-66 338.25,-62.5 338.25,-69.5"/>
</a>
</g>
</g>
<!-- Node5 -->
<g id="Node000005" class="node">
<title>Node5</title>
<g id="a_Node000005"><a xlink:href="classbattery_v2_1_1_monte_carlo_g_u_i.html#a67f25aa73b33a439ae78ad47aebbddc6" target="_top" xlink:title="Updates the histogram display for extreme simulation results.">
<polygon fill="white" stroke="#666666" points="483.75,-32 351.5,-32 351.5,0 483.75,0 483.75,-32"/>
<text text-anchor="start" x="359.5" y="-18.5" font-family="Helvetica,sans-Serif" font-size="10.00">batteryV2.MonteCarloGUI.</text>
<text text-anchor="middle" x="417.62" y="-6.5" font-family="Helvetica,sans-Serif" font-size="10.00">_plot_distributions</text>
</a>
</g>
</g>
<!-- Node4&#45;&gt;Node5 -->
<g id="edge4_Node000004_Node000005" class="edge">
<title>Node4&#45;&gt;Node5</title>
<g id="a_edge4_Node000004_Node000005"><a xlink:title=" ">
<path fill="none" stroke="#63b8ff" d="M314.36,-16C322.74,-16 331.31,-16 339.75,-16"/>
<polygon fill="#63b8ff" stroke="#63b8ff" points="339.63,-19.5 349.63,-16 339.63,-12.5 339.63,-19.5"/>
</a>
</g>
</g>
</g>
</svg>
