<?xml version="1.0" encoding="UTF-8" standalone="no"?>
<!DOCTYPE svg PUBLIC "-//W3C//DTD SVG 1.1//EN"
 "http://www.w3.org/Graphics/SVG/1.1/DTD/svg11.dtd">
<!-- Generated by graphviz version 12.2.1 (20241206.2353)
 -->
<!-- Title: batteryV2.MonteCarloGUI._build_tabs Pages: 1 -->
<svg width="688pt" height="140pt"
 viewBox="0.00 0.00 687.75 140.00" xmlns="http://www.w3.org/2000/svg" xmlns:xlink="http://www.w3.org/1999/xlink">
<g id="graph0" class="graph" transform="scale(1 1) rotate(0) translate(4 136)">
<title>batteryV2.MonteCarloGUI._build_tabs</title>
<!-- Node1 -->
<g id="Node000001" class="node">
<title>Node1</title>
<g id="a_Node000001"><a xlink:title="Constructs the tabbed interface for the application.">
<polygon fill="#999999" stroke="#666666" points="132.25,-82 0,-82 0,-50 132.25,-50 132.25,-82"/>
<text text-anchor="start" x="8" y="-68.5" font-family="Helvetica,sans-Serif" font-size="10.00">batteryV2.MonteCarloGUI.</text>
<text text-anchor="middle" x="66.12" y="-56.5" font-family="Helvetica,sans-Serif" font-size="10.00">_build_tabs</text>
</a>
</g>
</g>
<!-- Node2 -->
<g id="Node000002" class="node">
<title>Node2</title>
<g id="a_Node000002"><a xlink:href="classbattery_v2_1_1_monte_carlo_g_u_i.html#a61633bfee5719a0c083e20e04eeed9c7" target="_top" xlink:title=" ">
<polygon fill="white" stroke="#666666" points="313.62,-132 181.38,-132 181.38,-100 313.62,-100 313.62,-132"/>
<text text-anchor="start" x="189.38" y="-118.5" font-family="Helvetica,sans-Serif" font-size="10.00">batteryV2.MonteCarloGUI.</text>
<text text-anchor="middle" x="247.5" y="-106.5" font-family="Helvetica,sans-Serif" font-size="10.00">_build_extreme_widgets</text>
</a>
</g>
</g>
<!-- Node1&#45;&gt;Node2 -->
<g id="edge1_Node000001_Node000002" class="edge">
<title>Node1&#45;&gt;Node2</title>
<g id="a_edge1_Node000001_Node000002"><a xlink:title=" ">
<path fill="none" stroke="#63b8ff" d="M125.86,-82.37C142.04,-86.88 159.74,-91.82 176.49,-96.48"/>
<polygon fill="#63b8ff" stroke="#63b8ff" points="175.3,-99.79 185.87,-99.1 177.18,-93.04 175.3,-99.79"/>
</a>
</g>
</g>
<!-- Node3 -->
<g id="Node000003" class="node">
<title>Node3</title>
<g id="a_Node000003"><a xlink:href="classbattery_v2_1_1_monte_carlo_g_u_i.html#a779f1457bb1fa50d8f55c636b48c0967" target="_top" xlink:title="Builds the primary simulation dashboard.">
<polygon fill="white" stroke="#666666" points="313.62,-82 181.38,-82 181.38,-50 313.62,-50 313.62,-82"/>
<text text-anchor="start" x="189.38" y="-68.5" font-family="Helvetica,sans-Serif" font-size="10.00">batteryV2.MonteCarloGUI.</text>
<text text-anchor="middle" x="247.5" y="-56.5" font-family="Helvetica,sans-Serif" font-size="10.00">_build_widgets</text>
</a>
</g>
</g>
<!-- Node1&#45;&gt;Node3 -->
<g id="edge2_Node000001_Node000003" class="edge">
<title>Node1&#45;&gt;Node3</title>
<g id="a_edge2_Node000001_Node000003"><a xlink:title=" ">
<path fill="none" stroke="#63b8ff" d="M132.64,-66C144.75,-66 157.49,-66 169.89,-66"/>
<polygon fill="#63b8ff" stroke="#63b8ff" points="169.64,-69.5 179.64,-66 169.64,-62.5 169.64,-69.5"/>
</a>
</g>
</g>
<!-- Node8 -->
<g id="Node000008" class="node">
<title>Node8</title>
<g id="a_Node000008"><a xlink:href="classbattery_v2_1_1_monte_carlo_g_u_i.html#a9ac8fb9e7c9b79aac8a389fb85026221" target="_top" xlink:title="Generates a formatted string summarizing all mission and battery constants.">
<polygon fill="white" stroke="#666666" points="326.75,-32 168.25,-32 168.25,0 326.75,0 326.75,-32"/>
<text text-anchor="start" x="176.25" y="-18.5" font-family="Helvetica,sans-Serif" font-size="10.00">batteryV2.MonteCarloGUI.</text>
<text text-anchor="middle" x="247.5" y="-6.5" font-family="Helvetica,sans-Serif" font-size="10.00">_generate_parameters_summary</text>
</a>
</g>
</g>
<!-- Node1&#45;&gt;Node8 -->
<g id="edge7_Node000001_Node000008" class="edge">
<title>Node1&#45;&gt;Node8</title>
<g id="a_edge7_Node000001_Node000008"><a xlink:title=" ">
<path fill="none" stroke="#63b8ff" d="M125.86,-49.63C142.04,-45.12 159.74,-40.18 176.49,-35.52"/>
<polygon fill="#63b8ff" stroke="#63b8ff" points="177.18,-38.96 185.87,-32.9 175.3,-32.21 177.18,-38.96"/>
</a>
</g>
</g>
<!-- Node4 -->
<g id="Node000004" class="node">
<title>Node4</title>
<g id="a_Node000004"><a xlink:href="classbattery_v2_1_1_monte_carlo_g_u_i.html#a611efd143a0180842632d13d81ce106c" target="_top" xlink:title="Constructs the &quot;Extreme Conditions&quot; dashboard.">
<polygon fill="white" stroke="#666666" points="508.5,-107 362.75,-107 362.75,-75 508.5,-75 508.5,-107"/>
<text text-anchor="start" x="370.75" y="-93.5" font-family="Helvetica,sans-Serif" font-size="10.00">batteryV2.MonteCarloGUI.run</text>
<text text-anchor="middle" x="435.62" y="-81.5" font-family="Helvetica,sans-Serif" font-size="10.00">_extreme_simulation</text>
</a>
</g>
</g>
<!-- Node3&#45;&gt;Node4 -->
<g id="edge3_Node000003_Node000004" class="edge">
<title>Node3&#45;&gt;Node4</title>
<g id="a_edge3_Node000003_Node000004"><a xlink:title=" ">
<path fill="none" stroke="#63b8ff" d="M314.12,-74.81C326.06,-76.42 338.66,-78.11 351.04,-79.77"/>
<polygon fill="#63b8ff" stroke="#63b8ff" points="350.44,-83.22 360.81,-81.09 351.37,-76.29 350.44,-83.22"/>
</a>
</g>
</g>
<!-- Node6 -->
<g id="Node000006" class="node">
<title>Node6</title>
<g id="a_Node000006"><a xlink:href="classbattery_v2_1_1_monte_carlo_g_u_i.html#ad20f02647e50ac7a533c9e72e8071130" target="_top" xlink:title="Executes the standard Monte Carlo simulation.">
<polygon fill="white" stroke="#666666" points="508.5,-57 362.75,-57 362.75,-25 508.5,-25 508.5,-57"/>
<text text-anchor="start" x="370.75" y="-43.5" font-family="Helvetica,sans-Serif" font-size="10.00">batteryV2.MonteCarloGUI.run</text>
<text text-anchor="middle" x="435.62" y="-31.5" font-family="Helvetica,sans-Serif" font-size="10.00">_simulation</text>
</a>
</g>
</g>
<!-- Node3&#45;&gt;Node6 -->
<g id="edge5_Node000003_Node000006" class="edge">
<title>Node3&#45;&gt;Node6</title>
<g id="a_edge5_Node000003_Node000006"><a xlink:title=" ">
<path fill="none" stroke="#63b8ff" d="M314.12,-57.19C326.06,-55.58 338.66,-53.89 351.04,-52.23"/>
<polygon fill="#63b8ff" stroke="#63b8ff" points="351.37,-55.71 360.81,-50.91 350.44,-48.78 351.37,-55.71"/>
</a>
</g>
</g>
<!-- Node5 -->
<g id="Node000005" class="node">
<title>Node5</title>
<g id="a_Node000005"><a xlink:href="classbattery_v2_1_1_monte_carlo_g_u_i.html#a51e7e587954e3cceaea5ff17ad8aa75d" target="_top" xlink:title="Refreshes the histogram for extreme simulation results.">
<polygon fill="white" stroke="#666666" points="679.75,-107 544.5,-107 544.5,-75 679.75,-75 679.75,-107"/>
<text text-anchor="start" x="552.5" y="-93.5" font-family="Helvetica,sans-Serif" font-size="10.00">batteryV2.MonteCarloGUI.</text>
<text text-anchor="middle" x="612.12" y="-81.5" font-family="Helvetica,sans-Serif" font-size="10.00">_plot_extreme_distributions</text>
</a>
</g>
</g>
<!-- Node4&#45;&gt;Node5 -->
<g id="edge4_Node000004_Node000005" class="edge">
<title>Node4&#45;&gt;Node5</title>
<g id="a_edge4_Node000004_Node000005"><a xlink:title=" ">
<path fill="none" stroke="#63b8ff" d="M508.86,-91C516.83,-91 524.96,-91 533,-91"/>
<polygon fill="#63b8ff" stroke="#63b8ff" points="532.75,-94.5 542.75,-91 532.75,-87.5 532.75,-94.5"/>
</a>
</g>
</g>
<!-- Node7 -->
<g id="Node000007" class="node">
<title>Node7</title>
<g id="a_Node000007"><a xlink:href="classbattery_v2_1_1_monte_carlo_g_u_i.html#a67f25aa73b33a439ae78ad47aebbddc6" target="_top" xlink:title="Updates the histogram display for extreme simulation results.">
<polygon fill="white" stroke="#666666" points="678.25,-57 546,-57 546,-25 678.25,-25 678.25,-57"/>
<text text-anchor="start" x="554" y="-43.5" font-family="Helvetica,sans-Serif" font-size="10.00">batteryV2.MonteCarloGUI.</text>
<text text-anchor="middle" x="612.12" y="-31.5" font-family="Helvetica,sans-Serif" font-size="10.00">_plot_distributions</text>
</a>
</g>
</g>
<!-- Node6&#45;&gt;Node7 -->
<g id="edge6_Node000006_Node000007" class="edge">
<title>Node6&#45;&gt;Node7</title>
<g id="a_edge6_Node000006_Node000007"><a xlink:title=" ">
<path fill="none" stroke="#63b8ff" d="M508.86,-41C517.24,-41 525.81,-41 534.25,-41"/>
<polygon fill="#63b8ff" stroke="#63b8ff" points="534.13,-44.5 544.13,-41 534.13,-37.5 534.13,-44.5"/>
</a>
</g>
</g>
</g>
</svg>
