<?xml version="1.0" encoding="UTF-8" standalone="no"?>
<!DOCTYPE svg PUBLIC "-//W3C//DTD SVG 1.1//EN"
 "http://www.w3.org/Graphics/SVG/1.1/DTD/svg11.dtd">
<!-- Generated by graphviz version 12.2.1 (20241206.2353)
 -->
<!-- Title: batteryV2.MonteCarloGUI.run_simulation Pages: 1 -->
<svg width="799pt" height="134pt"
 viewBox="0.00 0.00 799.00 134.00" xmlns="http://www.w3.org/2000/svg" xmlns:xlink="http://www.w3.org/1999/xlink">
<g id="graph0" class="graph" transform="scale(1 1) rotate(0) translate(4 130)">
<title>batteryV2.MonteCarloGUI.run_simulation</title>
<!-- Node1 -->
<g id="Node000001" class="node">
<title>Node1</title>
<g id="a_Node000001"><a xlink:title=" ">
<polygon fill="#999999" stroke="#666666" points="145.75,-76 0,-76 0,-44 145.75,-44 145.75,-76"/>
<text text-anchor="start" x="8" y="-62.5" font-family="Helvetica,sans-Serif" font-size="10.00">batteryV2.MonteCarloGUI.run</text>
<text text-anchor="middle" x="72.88" y="-50.5" font-family="Helvetica,sans-Serif" font-size="10.00">_simulation</text>
</a>
</g>
</g>
<!-- Node2 -->
<g id="Node000002" class="node">
<title>Node2</title>
<g id="a_Node000002"><a xlink:href="classbattery_v2_1_1_monte_carlo_g_u_i.html#a67f25aa73b33a439ae78ad47aebbddc6" target="_top" xlink:title=" ">
<polygon fill="white" stroke="#666666" points="314,-126 181.75,-126 181.75,-94 314,-94 314,-126"/>
<text text-anchor="start" x="189.75" y="-112.5" font-family="Helvetica,sans-Serif" font-size="10.00">batteryV2.MonteCarloGUI.</text>
<text text-anchor="middle" x="247.88" y="-100.5" font-family="Helvetica,sans-Serif" font-size="10.00">_plot_distributions</text>
</a>
</g>
</g>
<!-- Node1&#45;&gt;Node2 -->
<g id="edge1_Node000001_Node000002" class="edge">
<title>Node1&#45;&gt;Node2</title>
<g id="a_edge1_Node000001_Node000002"><a xlink:title=" ">
<path fill="none" stroke="#63b8ff" d="M130.52,-76.37C145.97,-80.84 162.88,-85.72 178.89,-90.35"/>
<polygon fill="#63b8ff" stroke="#63b8ff" points="177.77,-93.67 188.35,-93.09 179.72,-86.95 177.77,-93.67"/>
</a>
</g>
</g>
<!-- Node3 -->
<g id="Node000003" class="node">
<title>Node3</title>
<g id="a_Node000003"><a xlink:href="namespacebattery_v2.html#a6767ab4344f7effdf944b81bcc495ead" target="_top" xlink:title=" ">
<polygon fill="white" stroke="#666666" points="301.25,-76 194.5,-76 194.5,-44 301.25,-44 301.25,-76"/>
<text text-anchor="start" x="202.5" y="-62.5" font-family="Helvetica,sans-Serif" font-size="10.00">batteryV2.run_monte</text>
<text text-anchor="middle" x="247.88" y="-50.5" font-family="Helvetica,sans-Serif" font-size="10.00">_carlo</text>
</a>
</g>
</g>
<!-- Node1&#45;&gt;Node3 -->
<g id="edge2_Node000001_Node000003" class="edge">
<title>Node1&#45;&gt;Node3</title>
<g id="a_edge2_Node000001_Node000003"><a xlink:title=" ">
<path fill="none" stroke="#63b8ff" d="M146.24,-60C158.38,-60 170.9,-60 182.81,-60"/>
<polygon fill="#63b8ff" stroke="#63b8ff" points="182.5,-63.5 192.5,-60 182.5,-56.5 182.5,-63.5"/>
</a>
</g>
</g>
<!-- Node8 -->
<g id="Node000008" class="node">
<title>Node8</title>
<g id="a_Node000008"><a xlink:href="namespacebattery_v2.html#a0af7214a83432d16096b4812474093be" target="_top" xlink:title=" ">
<polygon fill="white" stroke="#666666" points="475.12,-32 366.12,-32 366.12,0 475.12,0 475.12,-32"/>
<text text-anchor="start" x="374.12" y="-18.5" font-family="Helvetica,sans-Serif" font-size="10.00">batteryV2.summarize</text>
<text text-anchor="middle" x="420.62" y="-6.5" font-family="Helvetica,sans-Serif" font-size="10.00">_results</text>
</a>
</g>
</g>
<!-- Node1&#45;&gt;Node8 -->
<g id="edge8_Node000001_Node000008" class="edge">
<title>Node1&#45;&gt;Node8</title>
<g id="a_edge8_Node000001_Node000008"><a xlink:title=" ">
<path fill="none" stroke="#63b8ff" d="M137.74,-43.56C152.14,-40.31 167.41,-37.22 181.75,-35 239.81,-26 306.54,-21.14 354.51,-18.6"/>
<polygon fill="#63b8ff" stroke="#63b8ff" points="354.66,-22.1 364.47,-18.09 354.31,-15.11 354.66,-22.1"/>
</a>
</g>
</g>
<!-- Node4 -->
<g id="Node000004" class="node">
<title>Node4</title>
<g id="a_Node000004"><a xlink:href="namespacebattery_v2.html#ab0f783128b1bd9d942d65f8da46a1da8" target="_top" xlink:title=" ">
<polygon fill="white" stroke="#666666" points="491.25,-70 350,-70 350,-50 491.25,-50 491.25,-70"/>
<text text-anchor="middle" x="420.62" y="-56.5" font-family="Helvetica,sans-Serif" font-size="10.00">batteryV2.process_generator</text>
</a>
</g>
</g>
<!-- Node3&#45;&gt;Node4 -->
<g id="edge3_Node000003_Node000004" class="edge">
<title>Node3&#45;&gt;Node4</title>
<g id="a_edge3_Node000003_Node000004"><a xlink:title=" ">
<path fill="none" stroke="#63b8ff" d="M301.5,-60C313.13,-60 325.71,-60 338.18,-60"/>
<polygon fill="#63b8ff" stroke="#63b8ff" points="338.06,-63.5 348.06,-60 338.06,-56.5 338.06,-63.5"/>
</a>
</g>
</g>
<!-- Node5 -->
<g id="Node000005" class="node">
<title>Node5</title>
<g id="a_Node000005"><a xlink:href="namespacebattery_v2.html#af248bd08982771567965a793c77a9ab3" target="_top" xlink:title=" ">
<polygon fill="white" stroke="#666666" points="791,-110 661,-110 661,-78 791,-78 791,-110"/>
<text text-anchor="start" x="669" y="-96.5" font-family="Helvetica,sans-Serif" font-size="10.00">batteryV2.sample_random</text>
<text text-anchor="middle" x="726" y="-84.5" font-family="Helvetica,sans-Serif" font-size="10.00">_inputs</text>
</a>
</g>
</g>
<!-- Node4&#45;&gt;Node5 -->
<g id="edge4_Node000004_Node000005" class="edge">
<title>Node4&#45;&gt;Node5</title>
<g id="a_edge4_Node000004_Node000005"><a xlink:title=" ">
<path fill="none" stroke="#63b8ff" d="M457.97,-70.38C478.19,-75.7 503.92,-81.74 527.25,-85 567.35,-90.61 612.42,-92.96 649.4,-93.87"/>
<polygon fill="#63b8ff" stroke="#63b8ff" points="649.01,-97.36 659.09,-94.07 649.16,-90.36 649.01,-97.36"/>
</a>
</g>
</g>
<!-- Node6 -->
<g id="Node000006" class="node">
<title>Node6</title>
<g id="a_Node000006"><a xlink:href="namespacebattery_v2.html#aecfb42e205fe14aa239afe1e5f5981cb" target="_top" xlink:title=" ">
<polygon fill="white" stroke="#666666" points="625,-76 527.25,-76 527.25,-44 625,-44 625,-76"/>
<text text-anchor="start" x="535.25" y="-62.5" font-family="Helvetica,sans-Serif" font-size="10.00">batteryV2.simulate</text>
<text text-anchor="middle" x="576.12" y="-50.5" font-family="Helvetica,sans-Serif" font-size="10.00">_mission</text>
</a>
</g>
</g>
<!-- Node4&#45;&gt;Node6 -->
<g id="edge5_Node000004_Node000006" class="edge">
<title>Node4&#45;&gt;Node6</title>
<g id="a_edge5_Node000004_Node000006"><a xlink:title=" ">
<path fill="none" stroke="#63b8ff" d="M491.64,-60C499.71,-60 507.89,-60 515.8,-60"/>
<polygon fill="#63b8ff" stroke="#63b8ff" points="515.65,-63.5 525.65,-60 515.65,-56.5 515.65,-63.5"/>
</a>
</g>
</g>
<!-- Node6&#45;&gt;Node5 -->
<g id="edge7_Node000006_Node000005" class="edge">
<title>Node6&#45;&gt;Node5</title>
<g id="a_edge7_Node000006_Node000005"><a xlink:title=" ">
<path fill="none" stroke="#63b8ff" d="M625.14,-71.04C632.9,-72.83 641.11,-74.71 649.35,-76.61"/>
<polygon fill="#63b8ff" stroke="#63b8ff" points="648.55,-80.01 659.08,-78.84 650.12,-73.19 648.55,-80.01"/>
</a>
</g>
</g>
<!-- Node7 -->
<g id="Node000007" class="node">
<title>Node7</title>
<g id="a_Node000007"><a xlink:href="namespacebattery_v2.html#affe6e1176611f2db495c2495e6bdd6ec" target="_top" xlink:title=" ">
<polygon fill="white" stroke="#666666" points="774.88,-51 677.12,-51 677.12,-19 774.88,-19 774.88,-51"/>
<text text-anchor="start" x="685.12" y="-37.5" font-family="Helvetica,sans-Serif" font-size="10.00">batteryV2.effective</text>
<text text-anchor="middle" x="726" y="-25.5" font-family="Helvetica,sans-Serif" font-size="10.00">_capacity_wh</text>
</a>
</g>
</g>
<!-- Node6&#45;&gt;Node7 -->
<g id="edge6_Node000006_Node000007" class="edge">
<title>Node6&#45;&gt;Node7</title>
<g id="a_edge6_Node000006_Node000007"><a xlink:title=" ">
<path fill="none" stroke="#63b8ff" d="M625.14,-51.88C638.05,-49.7 652.17,-47.31 665.62,-45.04"/>
<polygon fill="#63b8ff" stroke="#63b8ff" points="665.96,-48.53 675.23,-43.41 664.79,-41.63 665.96,-48.53"/>
</a>
</g>
</g>
<!-- Node8&#45;&gt;Node7 -->
<g id="edge9_Node000008_Node000007" class="edge">
<title>Node8&#45;&gt;Node7</title>
<g id="a_edge9_Node000008_Node000007"><a xlink:title=" ">
<path fill="none" stroke="#63b8ff" d="M475.51,-19.37C528.92,-22.72 610.54,-27.83 665.75,-31.29"/>
<polygon fill="#63b8ff" stroke="#63b8ff" points="665.4,-34.77 675.6,-31.91 665.83,-27.79 665.4,-34.77"/>
</a>
</g>
</g>
</g>
</svg>
