<?xml version="1.0" encoding="UTF-8" standalone="no"?>
<!DOCTYPE svg PUBLIC "-//W3C//DTD SVG 1.1//EN"
 "http://www.w3.org/Graphics/SVG/1.1/DTD/svg11.dtd">
<!-- Generated by graphviz version 12.2.1 (20241206.2353)
 -->
<!-- Title: batteryV2.MonteCarloGUI.run_extreme_simulation Pages: 1 -->
<!--zoomable 138 -->

<svg id="main" version="1.1" xmlns="http://www.w3.org/2000/svg" xmlns:xlink="http://www.w3.org/1999/xlink" xml:space="preserve" onload="init(evt)">

<style type="text/css"><![CDATA[
.node, .edge {opacity: 0.7;}
.node.selected, .edge.selected {opacity: 1;}
.edge:hover path { stroke: red; }
.edge:hover polygon { stroke: red; fill: red; }
]]></style>

<defs>
  <circle id="rim" cx="0" cy="0" r="7"/>
  <circle id="rim2" cx="0" cy="0" r="3.5"/>
  <g id="zoomPlus">
    <use xlink:href="#rim" fill="#404040"><set attributeName="fill" to="#808080" begin="zoomplus.mouseover" end="zoomplus.mouseout"/></use>
    <path d="M-4,0h8M0,-4v8" fill="none" stroke="white" stroke-width="1.5" pointer-events="none"/>
  </g>
  <g id="zoomMin">
    <use xlink:href="#rim" fill="#404040"><set attributeName="fill" to="#808080" begin="zoomminus.mouseover" end="zoomminus.mouseout"/></use>
    <path d="M-4,0h8" fill="none" stroke="white" stroke-width="1.5" pointer-events="none"/>
  </g>
  <g id="arrowUp" transform="translate(30 24)">
    <use xlink:href="#rim"/>
    <path pointer-events="none" fill="none" stroke="white" stroke-width="1.5" d="M0,-3.0v7 M-2.5,-0.5L0,-3.0L2.5,-0.5"/>
  </g>
  <g id="arrowRight" transform="rotate(90) translate(36 -43)">
    <use xlink:href="#rim"/>
    <path pointer-events="none" fill="none" stroke="white" stroke-width="1.5" d="M0,-3.0v7 M-2.5,-0.5L0,-3.0L2.5,-0.5"/>
  </g>
  <g id="arrowDown" transform="rotate(180) translate(-30 -48)">
    <use xlink:href="#rim"/>
    <path pointer-events="none" fill="none" stroke="white" stroke-width="1.5" d="M0,-3.0v7 M-2.5,-0.5L0,-3.0L2.5,-0.5"/>
  </g>
  <g id="arrowLeft" transform="rotate(270) translate(-36 17)">
    <use xlink:href="#rim"/>
    <path pointer-events="none" fill="none" stroke="white" stroke-width="1.5" d="M0,-3.0v7 M-2.5,-0.5L0,-3.0L2.5,-0.5"/>
  </g>
  <g id="resetDef">
    <use xlink:href="#rim2" fill="#404040"><set attributeName="fill" to="#808080" begin="reset.mouseover" end="reset.mouseout"/></use>
  </g>
</defs>
<script type="application/ecmascript">
var viewWidth = 837;
var viewHeight = 138;
var sectionId = 'dynsection-2';
</script>
<script type="application/ecmascript" xlink:href="svg.min.js"/>
<svg id="graph" class="graph">
<g id="viewport">
<title>batteryV2.MonteCarloGUI.run_extreme_simulation</title>
<!-- Node1 -->
<g id="Node000001" class="node">
<title>Node1</title>
<g id="a_Node000001"><a xlink:title=" ">
<polygon fill="#999999" stroke="#666666" points="145.75,-80 0,-80 0,-48 145.75,-48 145.75,-80"/>
<text text-anchor="start" x="8" y="-66.5" font-family="Helvetica,sans-Serif" font-size="10.00">batteryV2.MonteCarloGUI.run</text>
<text text-anchor="middle" x="72.88" y="-54.5" font-family="Helvetica,sans-Serif" font-size="10.00">_extreme_simulation</text>
</a>
</g>
</g>
<!-- Node2 -->
<g id="Node000002" class="node">
<title>Node2</title>
<g id="a_Node000002"><a xlink:href="classbattery_v2_1_1_monte_carlo_g_u_i.html#a51e7e587954e3cceaea5ff17ad8aa75d" target="_top" xlink:title=" ">
<polygon fill="white" stroke="#666666" points="317,-130 181.75,-130 181.75,-98 317,-98 317,-130"/>
<text text-anchor="start" x="189.75" y="-116.5" font-family="Helvetica,sans-Serif" font-size="10.00">batteryV2.MonteCarloGUI.</text>
<text text-anchor="middle" x="249.38" y="-104.5" font-family="Helvetica,sans-Serif" font-size="10.00">_plot_extreme_distributions</text>
</a>
</g>
</g>
<!-- Node1&#45;&gt;Node2 -->
<g id="edge1_Node000001_Node000002" class="edge">
<title>Node1&#45;&gt;Node2</title>
<g id="a_edge1_Node000001_Node000002"><a xlink:title=" ">
<path fill="none" stroke="#63b8ff" d="M131.01,-80.37C146.6,-84.84 163.65,-89.72 179.8,-94.35"/>
<polygon fill="#63b8ff" stroke="#63b8ff" points="178.78,-97.7 189.36,-97.09 180.71,-90.97 178.78,-97.7"/>
</a>
</g>
</g>
<!-- Node3 -->
<g id="Node000003" class="node">
<title>Node3</title>
<g id="a_Node000003"><a xlink:href="namespacebattery_v2.html#a0d381538536ff5ceaa0cb593457e986f" target="_top" xlink:title=" ">
<polygon fill="white" stroke="#666666" points="302.75,-80 196,-80 196,-48 302.75,-48 302.75,-80"/>
<text text-anchor="start" x="204" y="-66.5" font-family="Helvetica,sans-Serif" font-size="10.00">batteryV2.run_monte</text>
<text text-anchor="middle" x="249.38" y="-54.5" font-family="Helvetica,sans-Serif" font-size="10.00">_carlo_extreme</text>
</a>
</g>
</g>
<!-- Node1&#45;&gt;Node3 -->
<g id="edge2_Node000001_Node000003" class="edge">
<title>Node1&#45;&gt;Node3</title>
<g id="a_edge2_Node000001_Node000003"><a xlink:title=" ">
<path fill="none" stroke="#63b8ff" d="M146.11,-64C158.82,-64 171.96,-64 184.42,-64"/>
<polygon fill="#63b8ff" stroke="#63b8ff" points="184.13,-67.5 194.13,-64 184.13,-60.5 184.13,-67.5"/>
</a>
</g>
</g>
<!-- Node9 -->
<g id="Node000009" class="node">
<title>Node9</title>
<g id="a_Node000009"><a xlink:href="namespacebattery_v2.html#a0af7214a83432d16096b4812474093be" target="_top" xlink:title=" ">
<polygon fill="white" stroke="#666666" points="478.12,-32 369.12,-32 369.12,0 478.12,0 478.12,-32"/>
<text text-anchor="start" x="377.12" y="-18.5" font-family="Helvetica,sans-Serif" font-size="10.00">batteryV2.summarize</text>
<text text-anchor="middle" x="423.62" y="-6.5" font-family="Helvetica,sans-Serif" font-size="10.00">_results</text>
</a>
</g>
</g>
<!-- Node1&#45;&gt;Node9 -->
<g id="edge8_Node000001_Node000009" class="edge">
<title>Node1&#45;&gt;Node9</title>
<g id="a_edge8_Node000001_Node000009"><a xlink:title=" ">
<path fill="none" stroke="#63b8ff" d="M138.63,-47.53C152.77,-44.34 167.71,-41.29 181.75,-39 240.86,-29.37 308.84,-23.33 357.48,-19.87"/>
<polygon fill="#63b8ff" stroke="#63b8ff" points="357.54,-23.38 367.28,-19.2 357.06,-16.39 357.54,-23.38"/>
</a>
</g>
</g>
<!-- Node4 -->
<g id="Node000004" class="node">
<title>Node4</title>
<g id="a_Node000004"><a xlink:href="namespacebattery_v2.html#a5fad548f1d812962fab2729d76b85e38" target="_top" xlink:title=" ">
<polygon fill="white" stroke="#666666" points="494.25,-82 353,-82 353,-50 494.25,-50 494.25,-82"/>
<text text-anchor="start" x="361" y="-68.5" font-family="Helvetica,sans-Serif" font-size="10.00">batteryV2.process_generator</text>
<text text-anchor="middle" x="423.62" y="-56.5" font-family="Helvetica,sans-Serif" font-size="10.00">_extreme</text>
</a>
</g>
</g>
<!-- Node3&#45;&gt;Node4 -->
<g id="edge3_Node000003_Node000004" class="edge">
<title>Node3&#45;&gt;Node4</title>
<g id="a_edge3_Node000003_Node000004"><a xlink:title=" ">
<path fill="none" stroke="#63b8ff" d="M302.99,-64.61C315.08,-64.75 328.22,-64.9 341.21,-65.05"/>
<polygon fill="#63b8ff" stroke="#63b8ff" points="341,-68.55 351.04,-65.17 341.08,-61.55 341,-68.55"/>
</a>
</g>
</g>
<!-- Node5 -->
<g id="Node000005" class="node">
<title>Node5</title>
<g id="a_Node000005"><a xlink:href="namespacebattery_v2.html#a12a82ab0f3070f3f3081ff6589fd929b" target="_top" xlink:title=" ">
<polygon fill="white" stroke="#666666" points="663.25,-129 530.25,-129 530.25,-97 663.25,-97 663.25,-129"/>
<text text-anchor="start" x="538.25" y="-115.5" font-family="Helvetica,sans-Serif" font-size="10.00">batteryV2.sample_extreme</text>
<text text-anchor="middle" x="596.75" y="-103.5" font-family="Helvetica,sans-Serif" font-size="10.00">_inputs</text>
</a>
</g>
</g>
<!-- Node4&#45;&gt;Node5 -->
<g id="edge4_Node000004_Node000005" class="edge">
<title>Node4&#45;&gt;Node5</title>
<g id="a_edge4_Node000004_Node000005"><a xlink:title=" ">
<path fill="none" stroke="#63b8ff" d="M484.48,-82.44C497.63,-86.05 511.68,-89.91 525.22,-93.63"/>
<polygon fill="#63b8ff" stroke="#63b8ff" points="523.9,-96.9 534.47,-96.17 525.76,-90.15 523.9,-96.9"/>
</a>
</g>
</g>
<!-- Node6 -->
<g id="Node000006" class="node">
<title>Node6</title>
<g id="a_Node000006"><a xlink:href="namespacebattery_v2.html#aecfb42e205fe14aa239afe1e5f5981cb" target="_top" xlink:title=" ">
<polygon fill="white" stroke="#666666" points="645.62,-79 547.88,-79 547.88,-47 645.62,-47 645.62,-79"/>
<text text-anchor="start" x="555.88" y="-65.5" font-family="Helvetica,sans-Serif" font-size="10.00">batteryV2.simulate</text>
<text text-anchor="middle" x="596.75" y="-53.5" font-family="Helvetica,sans-Serif" font-size="10.00">_mission</text>
</a>
</g>
</g>
<!-- Node4&#45;&gt;Node6 -->
<g id="edge5_Node000004_Node000006" class="edge">
<title>Node4&#45;&gt;Node6</title>
<g id="a_edge5_Node000004_Node000006"><a xlink:title=" ">
<path fill="none" stroke="#63b8ff" d="M494.72,-64.77C508.43,-64.53 522.68,-64.28 536.01,-64.05"/>
<polygon fill="#63b8ff" stroke="#63b8ff" points="536.01,-67.55 545.94,-63.87 535.88,-60.55 536.01,-67.55"/>
</a>
</g>
</g>
<!-- Node7 -->
<g id="Node000007" class="node">
<title>Node7</title>
<g id="a_Node000007"><a xlink:href="namespacebattery_v2.html#affe6e1176611f2db495c2495e6bdd6ec" target="_top" xlink:title=" ">
<polygon fill="white" stroke="#666666" points="813.12,-32 715.38,-32 715.38,0 813.12,0 813.12,-32"/>
<text text-anchor="start" x="723.38" y="-18.5" font-family="Helvetica,sans-Serif" font-size="10.00">batteryV2.effective</text>
<text text-anchor="middle" x="764.25" y="-6.5" font-family="Helvetica,sans-Serif" font-size="10.00">_capacity_wh</text>
</a>
</g>
</g>
<!-- Node6&#45;&gt;Node7 -->
<g id="edge6_Node000006_Node000007" class="edge">
<title>Node6&#45;&gt;Node7</title>
<g id="a_edge6_Node000006_Node000007"><a xlink:title=" ">
<path fill="none" stroke="#63b8ff" d="M646.06,-49.28C664.17,-44.14 684.95,-38.24 703.94,-32.84"/>
<polygon fill="#63b8ff" stroke="#63b8ff" points="704.76,-36.25 713.42,-30.15 702.84,-29.52 704.76,-36.25"/>
</a>
</g>
</g>
<!-- Node8 -->
<g id="Node000008" class="node">
<title>Node8</title>
<g id="a_Node000008"><a xlink:href="namespacebattery_v2.html#af248bd08982771567965a793c77a9ab3" target="_top" xlink:title=" ">
<polygon fill="white" stroke="#666666" points="829.25,-82 699.25,-82 699.25,-50 829.25,-50 829.25,-82"/>
<text text-anchor="start" x="707.25" y="-68.5" font-family="Helvetica,sans-Serif" font-size="10.00">batteryV2.sample_random</text>
<text text-anchor="middle" x="764.25" y="-56.5" font-family="Helvetica,sans-Serif" font-size="10.00">_inputs</text>
</a>
</g>
</g>
<!-- Node6&#45;&gt;Node8 -->
<g id="edge7_Node000006_Node000008" class="edge">
<title>Node6&#45;&gt;Node8</title>
<g id="a_edge7_Node000006_Node000008"><a xlink:title=" ">
<path fill="none" stroke="#63b8ff" d="M646.06,-63.88C659.09,-64.11 673.5,-64.37 687.63,-64.63"/>
<polygon fill="#63b8ff" stroke="#63b8ff" points="687.29,-68.12 697.35,-64.81 687.42,-61.12 687.29,-68.12"/>
</a>
</g>
</g>
<!-- Node9&#45;&gt;Node7 -->
<g id="edge9_Node000009_Node000007" class="edge">
<title>Node9&#45;&gt;Node7</title>
<g id="a_edge9_Node000009_Node000007"><a xlink:title=" ">
<path fill="none" stroke="#63b8ff" d="M478.28,-16C539.64,-16 639.82,-16 703.59,-16"/>
<polygon fill="#63b8ff" stroke="#63b8ff" points="703.54,-19.5 713.54,-16 703.54,-12.5 703.54,-19.5"/>
</a>
</g>
</g>
</g>
</svg>

<g id="navigator" transform="translate(0 0)" fill="#404254">
  <rect fill="#f2f5e9" fill-opacity="0.5" stroke="#606060" stroke-width=".5" x="0" y="0" width="60" height="60"/>
  <use id="zoomplus" xlink:href="#zoomPlus" x="17" y="9" onmousedown="handleZoom(evt,'in')"/>
  <use id="zoomminus" xlink:href="#zoomMin" x="42" y="9" onmousedown="handleZoom(evt,'out')"/>
  <use id="reset" xlink:href="#resetDef" x="30" y="36" onmousedown="handleReset()"/>
   <use id="arrowup" xlink:href="#arrowUp" x="0" y="0" onmousedown="handlePan(0,-1)"/>
  <use id="arrowright" xlink:href="#arrowRight" x="0" y="0" onmousedown="handlePan(1,0)"/>
  <use id="arrowdown" xlink:href="#arrowDown" x="0" y="0" onmousedown="handlePan(0,1)"/>
  <use id="arrowleft" xlink:href="#arrowLeft" x="0" y="0" onmousedown="handlePan(-1,0)"/>
</g>
<svg viewBox="0 0 15 15" width="100%" height="30px" preserveAspectRatio="xMaxYMin meet">
 <g id="arrow_out" transform="scale(0.3 0.3)">
  <a xlink:href="classbattery_v2_1_1_monte_carlo_g_u_i_a611efd143a0180842632d13d81ce106c_cgraph_org.svg" target="_base">
   <rect id="button" ry="5" rx="5" y="6" x="6" height="38" width="38"
        fill="#f2f5e9" fill-opacity="0.5" stroke="#606060" stroke-width="1.0"/>
   <path id="arrow"
     d="M 11.500037,31.436501 C 11.940474,20.09759 22.043105,11.32322 32.158766,21.979434 L 37.068811,17.246167 C 37.068811,17.246167 37.088388,32 37.088388,32 L 22.160133,31.978069 C 22.160133,31.978069 26.997745,27.140456 26.997745,27.140456 C 18.528582,18.264221 13.291696,25.230495 11.500037,31.436501 z"
     style="fill:#404040;"/>
  </a>
 </g>
</svg>

<style type='text/css'>
<![CDATA[
[data-mouse-over-selected='false'] { opacity: 0.7; }
[data-mouse-over-selected='true']  { opacity: 1.0; }
]]>
</style>
<script type="application/ecmascript"><![CDATA[
document.addEventListener('DOMContentLoaded', (event) => {
  highlightEdges();
  highlightAdjacentNodes();
});
]]></script>
</svg>
