<?xml version="1.0" encoding="UTF-8" standalone="no"?>
<!DOCTYPE svg PUBLIC "-//W3C//DTD SVG 1.1//EN"
 "http://www.w3.org/Graphics/SVG/1.1/DTD/svg11.dtd">
<!-- Generated by graphviz version 12.2.1 (20241206.2353)
 -->
<!-- Title: batteryV2.MonteCarloGUI._build_tabs Pages: 1 -->
<svg width="335pt" height="140pt"
 viewBox="0.00 0.00 334.75 140.00" xmlns="http://www.w3.org/2000/svg" xmlns:xlink="http://www.w3.org/1999/xlink">
<g id="graph0" class="graph" transform="scale(1 1) rotate(0) translate(4 136)">
<title>batteryV2.MonteCarloGUI._build_tabs</title>
<!-- Node1 -->
<g id="Node000001" class="node">
<title>Node1</title>
<g id="a_Node000001"><a xlink:title="Constructs the tabbed interface for the application.">
<polygon fill="#999999" stroke="#666666" points="132.25,-82 0,-82 0,-50 132.25,-50 132.25,-82"/>
<text text-anchor="start" x="8" y="-68.5" font-family="Helvetica,sans-Serif" font-size="10.00">batteryV2.MonteCarloGUI.</text>
<text text-anchor="middle" x="66.12" y="-56.5" font-family="Helvetica,sans-Serif" font-size="10.00">_build_tabs</text>
</a>
</g>
</g>
<!-- Node2 -->
<g id="Node000002" class="node">
<title>Node2</title>
<g id="a_Node000002"><a xlink:href="classbattery_v2_1_1_monte_carlo_g_u_i.html#a61633bfee5719a0c083e20e04eeed9c7" target="_top" xlink:title=" ">
<polygon fill="white" stroke="#666666" points="313.62,-132 181.38,-132 181.38,-100 313.62,-100 313.62,-132"/>
<text text-anchor="start" x="189.38" y="-118.5" font-family="Helvetica,sans-Serif" font-size="10.00">batteryV2.MonteCarloGUI.</text>
<text text-anchor="middle" x="247.5" y="-106.5" font-family="Helvetica,sans-Serif" font-size="10.00">_build_extreme_widgets</text>
</a>
</g>
</g>
<!-- Node1&#45;&gt;Node2 -->
<g id="edge1_Node000001_Node000002" class="edge">
<title>Node1&#45;&gt;Node2</title>
<g id="a_edge1_Node000001_Node000002"><a xlink:title=" ">
<path fill="none" stroke="#63b8ff" d="M125.86,-82.37C142.04,-86.88 159.74,-91.82 176.49,-96.48"/>
<polygon fill="#63b8ff" stroke="#63b8ff" points="175.3,-99.79 185.87,-99.1 177.18,-93.04 175.3,-99.79"/>
</a>
</g>
</g>
<!-- Node3 -->
<g id="Node000003" class="node">
<title>Node3</title>
<g id="a_Node000003"><a xlink:href="classbattery_v2_1_1_monte_carlo_g_u_i.html#a779f1457bb1fa50d8f55c636b48c0967" target="_top" xlink:title="Builds the primary simulation dashboard.">
<polygon fill="white" stroke="#666666" points="313.62,-82 181.38,-82 181.38,-50 313.62,-50 313.62,-82"/>
<text text-anchor="start" x="189.38" y="-68.5" font-family="Helvetica,sans-Serif" font-size="10.00">batteryV2.MonteCarloGUI.</text>
<text text-anchor="middle" x="247.5" y="-56.5" font-family="Helvetica,sans-Serif" font-size="10.00">_build_widgets</text>
</a>
</g>
</g>
<!-- Node1&#45;&gt;Node3 -->
<g id="edge2_Node000001_Node000003" class="edge">
<title>Node1&#45;&gt;Node3</title>
<g id="a_edge2_Node000001_Node000003"><a xlink:title=" ">
<path fill="none" stroke="#63b8ff" d="M132.64,-66C144.75,-66 157.49,-66 169.89,-66"/>
<polygon fill="#63b8ff" stroke="#63b8ff" points="169.64,-69.5 179.64,-66 169.64,-62.5 169.64,-69.5"/>
</a>
</g>
</g>
<!-- Node4 -->
<g id="Node000004" class="node">
<title>Node4</title>
<g id="a_Node000004"><a xlink:href="classbattery_v2_1_1_monte_carlo_g_u_i.html#a9ac8fb9e7c9b79aac8a389fb85026221" target="_top" xlink:title="Generates a formatted string summarizing all mission and battery constants.">
<polygon fill="white" stroke="#666666" points="326.75,-32 168.25,-32 168.25,0 326.75,0 326.75,-32"/>
<text text-anchor="start" x="176.25" y="-18.5" font-family="Helvetica,sans-Serif" font-size="10.00">batteryV2.MonteCarloGUI.</text>
<text text-anchor="middle" x="247.5" y="-6.5" font-family="Helvetica,sans-Serif" font-size="10.00">_generate_parameters_summary</text>
</a>
</g>
</g>
<!-- Node1&#45;&gt;Node4 -->
<g id="edge3_Node000001_Node000004" class="edge">
<title>Node1&#45;&gt;Node4</title>
<g id="a_edge3_Node000001_Node000004"><a xlink:title=" ">
<path fill="none" stroke="#63b8ff" d="M125.86,-49.63C142.04,-45.12 159.74,-40.18 176.49,-35.52"/>
<polygon fill="#63b8ff" stroke="#63b8ff" points="177.18,-38.96 185.87,-32.9 175.3,-32.21 177.18,-38.96"/>
</a>
</g>
</g>
</g>
</svg>
