<?xml version="1.0" encoding="UTF-8" standalone="no"?>
<!DOCTYPE svg PUBLIC "-//W3C//DTD SVG 1.1//EN"
 "http://www.w3.org/Graphics/SVG/1.1/DTD/svg11.dtd">
<!-- Generated by graphviz version 12.2.1 (20241206.2353)
 -->
<!-- Title: batteryV2.main Pages: 1 -->
<svg width="251pt" height="46pt"
 viewBox="0.00 0.00 250.75 46.00" xmlns="http://www.w3.org/2000/svg" xmlns:xlink="http://www.w3.org/1999/xlink">
<g id="graph0" class="graph" transform="scale(1 1) rotate(0) translate(4 42)">
<title>batteryV2.main</title>
<!-- Node1 -->
<g id="Node000001" class="node">
<title>Node1</title>
<g id="a_Node000001"><a xlink:title=" ">
<polygon fill="#999999" stroke="#666666" points="82,-20 0,-20 0,0 82,0 82,-20"/>
<text text-anchor="middle" x="41" y="-6.5" font-family="Helvetica,sans-Serif" font-size="10.00">batteryV2.main</text>
</a>
</g>
</g>
<!-- Node1&#45;&gt;Node1 -->
<g id="edge2_Node000001_Node000001" class="edge">
<title>Node1&#45;&gt;Node1</title>
<g id="a_edge2_Node000001_Node000001"><a xlink:title=" ">
<path fill="none" stroke="#63b8ff" d="M18.85,-20.34C9.39,-28.98 16.77,-38 41,-38 54.25,-38 62.46,-35.3 65.63,-31.44"/>
<polygon fill="#63b8ff" stroke="#63b8ff" points="69.08,-30.81 63.48,-21.82 62.25,-32.34 69.08,-30.81"/>
</a>
</g>
</g>
<!-- Node2 -->
<g id="Node000002" class="node">
<title>Node2</title>
<g id="a_Node000002"><a xlink:href="namespacebattery_v2.html#ac295a887f44787458bbce044c155efd6" target="_top" xlink:title=" ">
<polygon fill="white" stroke="#666666" points="242.75,-20 118,-20 118,0 242.75,0 242.75,-20"/>
<text text-anchor="middle" x="180.38" y="-6.5" font-family="Helvetica,sans-Serif" font-size="10.00">batteryV2.generate_docs</text>
</a>
</g>
</g>
<!-- Node1&#45;&gt;Node2 -->
<g id="edge1_Node000001_Node000002" class="edge">
<title>Node1&#45;&gt;Node2</title>
<g id="a_edge1_Node000001_Node000002"><a xlink:title=" ">
<path fill="none" stroke="#63b8ff" d="M82.47,-10C89.95,-10 97.97,-10 106.07,-10"/>
<polygon fill="#63b8ff" stroke="#63b8ff" points="106.02,-13.5 116.02,-10 106.02,-6.5 106.02,-13.5"/>
</a>
</g>
</g>
</g>
</svg>
