<?xml version="1.0" encoding="UTF-8" standalone="no"?>
<!DOCTYPE svg PUBLIC "-//W3C//DTD SVG 1.1//EN"
 "http://www.w3.org/Graphics/SVG/1.1/DTD/svg11.dtd">
<!-- Generated by graphviz version 12.2.1 (20241206.2353)
 -->
<!-- Title: batteryV2.run_monte_carlo Pages: 1 -->
<svg width="592pt" height="90pt"
 viewBox="0.00 0.00 591.75 90.00" xmlns="http://www.w3.org/2000/svg" xmlns:xlink="http://www.w3.org/1999/xlink">
<g id="graph0" class="graph" transform="scale(1 1) rotate(0) translate(4 86)">
<title>batteryV2.run_monte_carlo</title>
<!-- Node1 -->
<g id="Node000001" class="node">
<title>Node1</title>
<g id="a_Node000001"><a xlink:title=" ">
<polygon fill="#999999" stroke="#666666" points="106.75,-57 0,-57 0,-25 106.75,-25 106.75,-57"/>
<text text-anchor="start" x="8" y="-43.5" font-family="Helvetica,sans-Serif" font-size="10.00">batteryV2.run_monte</text>
<text text-anchor="middle" x="53.38" y="-31.5" font-family="Helvetica,sans-Serif" font-size="10.00">_carlo</text>
</a>
</g>
</g>
<!-- Node2 -->
<g id="Node000002" class="node">
<title>Node2</title>
<g id="a_Node000002"><a xlink:href="namespacebattery_v2.html#ab0f783128b1bd9d942d65f8da46a1da8" target="_top" xlink:title=" ">
<polygon fill="white" stroke="#666666" points="284,-51 142.75,-51 142.75,-31 284,-31 284,-51"/>
<text text-anchor="middle" x="213.38" y="-37.5" font-family="Helvetica,sans-Serif" font-size="10.00">batteryV2.process_generator</text>
</a>
</g>
</g>
<!-- Node1&#45;&gt;Node2 -->
<g id="edge1_Node000001_Node000002" class="edge">
<title>Node1&#45;&gt;Node2</title>
<g id="a_edge1_Node000001_Node000002"><a xlink:title=" ">
<path fill="none" stroke="#63b8ff" d="M106.99,-41C114.67,-41 122.74,-41 130.84,-41"/>
<polygon fill="#63b8ff" stroke="#63b8ff" points="130.77,-44.5 140.77,-41 130.77,-37.5 130.77,-44.5"/>
</a>
</g>
</g>
<!-- Node3 -->
<g id="Node000003" class="node">
<title>Node3</title>
<g id="a_Node000003"><a xlink:href="namespacebattery_v2.html#aecfb42e205fe14aa239afe1e5f5981cb" target="_top" xlink:title=" ">
<polygon fill="white" stroke="#666666" points="417.75,-57 320,-57 320,-25 417.75,-25 417.75,-57"/>
<text text-anchor="start" x="328" y="-43.5" font-family="Helvetica,sans-Serif" font-size="10.00">batteryV2.simulate</text>
<text text-anchor="middle" x="368.88" y="-31.5" font-family="Helvetica,sans-Serif" font-size="10.00">_mission</text>
</a>
</g>
</g>
<!-- Node2&#45;&gt;Node3 -->
<g id="edge2_Node000002_Node000003" class="edge">
<title>Node2&#45;&gt;Node3</title>
<g id="a_edge2_Node000002_Node000003"><a xlink:title=" ">
<path fill="none" stroke="#63b8ff" d="M284.39,-41C292.46,-41 300.64,-41 308.55,-41"/>
<polygon fill="#63b8ff" stroke="#63b8ff" points="308.4,-44.5 318.4,-41 308.4,-37.5 308.4,-44.5"/>
</a>
</g>
</g>
<!-- Node4 -->
<g id="Node000004" class="node">
<title>Node4</title>
<g id="a_Node000004"><a xlink:href="namespacebattery_v2.html#affe6e1176611f2db495c2495e6bdd6ec" target="_top" xlink:title=" ">
<polygon fill="white" stroke="#666666" points="567.62,-82 469.88,-82 469.88,-50 567.62,-50 567.62,-82"/>
<text text-anchor="start" x="477.88" y="-68.5" font-family="Helvetica,sans-Serif" font-size="10.00">batteryV2.effective</text>
<text text-anchor="middle" x="518.75" y="-56.5" font-family="Helvetica,sans-Serif" font-size="10.00">_capacity_wh</text>
</a>
</g>
</g>
<!-- Node3&#45;&gt;Node4 -->
<g id="edge3_Node000003_Node000004" class="edge">
<title>Node3&#45;&gt;Node4</title>
<g id="a_edge3_Node000003_Node000004"><a xlink:title=" ">
<path fill="none" stroke="#63b8ff" d="M417.89,-49.12C430.8,-51.3 444.92,-53.69 458.37,-55.96"/>
<polygon fill="#63b8ff" stroke="#63b8ff" points="457.54,-59.37 467.98,-57.59 458.71,-52.47 457.54,-59.37"/>
</a>
</g>
</g>
<!-- Node5 -->
<g id="Node000005" class="node">
<title>Node5</title>
<g id="a_Node000005"><a xlink:href="namespacebattery_v2.html#af248bd08982771567965a793c77a9ab3" target="_top" xlink:title=" ">
<polygon fill="white" stroke="#666666" points="583.75,-32 453.75,-32 453.75,0 583.75,0 583.75,-32"/>
<text text-anchor="start" x="461.75" y="-18.5" font-family="Helvetica,sans-Serif" font-size="10.00">batteryV2.sample_random</text>
<text text-anchor="middle" x="518.75" y="-6.5" font-family="Helvetica,sans-Serif" font-size="10.00">_inputs</text>
</a>
</g>
</g>
<!-- Node3&#45;&gt;Node5 -->
<g id="edge4_Node000003_Node000005" class="edge">
<title>Node3&#45;&gt;Node5</title>
<g id="a_edge4_Node000003_Node000005"><a xlink:title=" ">
<path fill="none" stroke="#63b8ff" d="M417.89,-32.88C425.65,-31.57 433.86,-30.18 442.1,-28.79"/>
<polygon fill="#63b8ff" stroke="#63b8ff" points="442.54,-32.27 451.81,-27.15 441.37,-25.36 442.54,-32.27"/>
</a>
</g>
</g>
</g>
</svg>
