<?xml version="1.0" encoding="UTF-8" standalone="no"?>
<!DOCTYPE svg PUBLIC "-//W3C//DTD SVG 1.1//EN"
 "http://www.w3.org/Graphics/SVG/1.1/DTD/svg11.dtd">
<!-- Generated by graphviz version 12.2.1 (20241206.2353)
 -->
<!-- Title: batteryV2.run_monte_carlo_extreme Pages: 1 -->
<svg width="627pt" height="115pt"
 viewBox="0.00 0.00 627.00 115.00" xmlns="http://www.w3.org/2000/svg" xmlns:xlink="http://www.w3.org/1999/xlink">
<g id="graph0" class="graph" transform="scale(1 1) rotate(0) translate(4 111)">
<title>batteryV2.run_monte_carlo_extreme</title>
<!-- Node1 -->
<g id="Node000001" class="node">
<title>Node1</title>
<g id="a_Node000001"><a xlink:title=" ">
<polygon fill="#999999" stroke="#666666" points="106.75,-82 0,-82 0,-50 106.75,-50 106.75,-82"/>
<text text-anchor="start" x="8" y="-68.5" font-family="Helvetica,sans-Serif" font-size="10.00">batteryV2.run_monte</text>
<text text-anchor="middle" x="53.38" y="-56.5" font-family="Helvetica,sans-Serif" font-size="10.00">_carlo_extreme</text>
</a>
</g>
</g>
<!-- Node2 -->
<g id="Node000002" class="node">
<title>Node2</title>
<g id="a_Node000002"><a xlink:href="namespacebattery_v2.html#a5fad548f1d812962fab2729d76b85e38" target="_top" xlink:title=" ">
<polygon fill="white" stroke="#666666" points="284,-82 142.75,-82 142.75,-50 284,-50 284,-82"/>
<text text-anchor="start" x="150.75" y="-68.5" font-family="Helvetica,sans-Serif" font-size="10.00">batteryV2.process_generator</text>
<text text-anchor="middle" x="213.38" y="-56.5" font-family="Helvetica,sans-Serif" font-size="10.00">_extreme</text>
</a>
</g>
</g>
<!-- Node1&#45;&gt;Node2 -->
<g id="edge1_Node000001_Node000002" class="edge">
<title>Node1&#45;&gt;Node2</title>
<g id="a_edge1_Node000001_Node000002"><a xlink:title=" ">
<path fill="none" stroke="#63b8ff" d="M106.99,-66C114.67,-66 122.74,-66 130.84,-66"/>
<polygon fill="#63b8ff" stroke="#63b8ff" points="130.77,-69.5 140.77,-66 130.77,-62.5 130.77,-69.5"/>
</a>
</g>
</g>
<!-- Node3 -->
<g id="Node000003" class="node">
<title>Node3</title>
<g id="a_Node000003"><a xlink:href="namespacebattery_v2.html#a12a82ab0f3070f3f3081ff6589fd929b" target="_top" xlink:title=" ">
<polygon fill="white" stroke="#666666" points="453,-107 320,-107 320,-75 453,-75 453,-107"/>
<text text-anchor="start" x="328" y="-93.5" font-family="Helvetica,sans-Serif" font-size="10.00">batteryV2.sample_extreme</text>
<text text-anchor="middle" x="386.5" y="-81.5" font-family="Helvetica,sans-Serif" font-size="10.00">_inputs</text>
</a>
</g>
</g>
<!-- Node2&#45;&gt;Node3 -->
<g id="edge2_Node000002_Node000003" class="edge">
<title>Node2&#45;&gt;Node3</title>
<g id="a_edge2_Node000002_Node000003"><a xlink:title=" ">
<path fill="none" stroke="#63b8ff" d="M284.47,-76.24C292.38,-77.4 300.46,-78.58 308.45,-79.74"/>
<polygon fill="#63b8ff" stroke="#63b8ff" points="307.75,-83.18 318.15,-81.16 308.76,-76.25 307.75,-83.18"/>
</a>
</g>
</g>
<!-- Node4 -->
<g id="Node000004" class="node">
<title>Node4</title>
<g id="a_Node000004"><a xlink:href="namespacebattery_v2.html#aecfb42e205fe14aa239afe1e5f5981cb" target="_top" xlink:title=" ">
<polygon fill="white" stroke="#666666" points="435.38,-57 337.62,-57 337.62,-25 435.38,-25 435.38,-57"/>
<text text-anchor="start" x="345.62" y="-43.5" font-family="Helvetica,sans-Serif" font-size="10.00">batteryV2.simulate</text>
<text text-anchor="middle" x="386.5" y="-31.5" font-family="Helvetica,sans-Serif" font-size="10.00">_mission</text>
</a>
</g>
</g>
<!-- Node2&#45;&gt;Node4 -->
<g id="edge3_Node000002_Node000004" class="edge">
<title>Node2&#45;&gt;Node4</title>
<g id="a_edge3_Node000002_Node000004"><a xlink:title=" ">
<path fill="none" stroke="#63b8ff" d="M284.47,-55.76C298.32,-53.74 312.72,-51.63 326.17,-49.67"/>
<polygon fill="#63b8ff" stroke="#63b8ff" points="326.32,-53.18 335.71,-48.27 325.31,-46.26 326.32,-53.18"/>
</a>
</g>
</g>
<!-- Node5 -->
<g id="Node000005" class="node">
<title>Node5</title>
<g id="a_Node000005"><a xlink:href="namespacebattery_v2.html#affe6e1176611f2db495c2495e6bdd6ec" target="_top" xlink:title=" ">
<polygon fill="white" stroke="#666666" points="602.88,-82 505.12,-82 505.12,-50 602.88,-50 602.88,-82"/>
<text text-anchor="start" x="513.12" y="-68.5" font-family="Helvetica,sans-Serif" font-size="10.00">batteryV2.effective</text>
<text text-anchor="middle" x="554" y="-56.5" font-family="Helvetica,sans-Serif" font-size="10.00">_capacity_wh</text>
</a>
</g>
</g>
<!-- Node4&#45;&gt;Node5 -->
<g id="edge4_Node000004_Node000005" class="edge">
<title>Node4&#45;&gt;Node5</title>
<g id="a_edge4_Node000004_Node000005"><a xlink:title=" ">
<path fill="none" stroke="#63b8ff" d="M435.81,-48.3C453.83,-51.02 474.51,-54.14 493.42,-57"/>
<polygon fill="#63b8ff" stroke="#63b8ff" points="492.72,-60.43 503.13,-58.47 493.76,-53.51 492.72,-60.43"/>
</a>
</g>
</g>
<!-- Node6 -->
<g id="Node000006" class="node">
<title>Node6</title>
<g id="a_Node000006"><a xlink:href="namespacebattery_v2.html#af248bd08982771567965a793c77a9ab3" target="_top" xlink:title=" ">
<polygon fill="white" stroke="#666666" points="619,-32 489,-32 489,0 619,0 619,-32"/>
<text text-anchor="start" x="497" y="-18.5" font-family="Helvetica,sans-Serif" font-size="10.00">batteryV2.sample_random</text>
<text text-anchor="middle" x="554" y="-6.5" font-family="Helvetica,sans-Serif" font-size="10.00">_inputs</text>
</a>
</g>
</g>
<!-- Node4&#45;&gt;Node6 -->
<g id="edge5_Node000004_Node000006" class="edge">
<title>Node4&#45;&gt;Node6</title>
<g id="a_edge5_Node000004_Node000006"><a xlink:title=" ">
<path fill="none" stroke="#63b8ff" d="M435.81,-33.7C448.84,-31.73 463.25,-29.56 477.38,-27.42"/>
<polygon fill="#63b8ff" stroke="#63b8ff" points="477.76,-30.91 487.12,-25.95 476.71,-23.98 477.76,-30.91"/>
</a>
</g>
</g>
</g>
</svg>
