<?xml version="1.0" encoding="UTF-8" standalone="no"?>
<!DOCTYPE svg PUBLIC "-//W3C//DTD SVG 1.1//EN"
 "http://www.w3.org/Graphics/SVG/1.1/DTD/svg11.dtd">
<!-- Generated by graphviz version 12.2.1 (20241206.2353)
 -->
<!-- Title: batteryV2.process_generator_extreme Pages: 1 -->
<svg width="484pt" height="115pt"
 viewBox="0.00 0.00 484.25 115.00" xmlns="http://www.w3.org/2000/svg" xmlns:xlink="http://www.w3.org/1999/xlink">
<g id="graph0" class="graph" transform="scale(1 1) rotate(0) translate(4 111)">
<title>batteryV2.process_generator_extreme</title>
<!-- Node1 -->
<g id="Node000001" class="node">
<title>Node1</title>
<g id="a_Node000001"><a xlink:title=" ">
<polygon fill="#999999" stroke="#666666" points="141.25,-82 0,-82 0,-50 141.25,-50 141.25,-82"/>
<text text-anchor="start" x="8" y="-68.5" font-family="Helvetica,sans-Serif" font-size="10.00">batteryV2.process_generator</text>
<text text-anchor="middle" x="70.62" y="-56.5" font-family="Helvetica,sans-Serif" font-size="10.00">_extreme</text>
</a>
</g>
</g>
<!-- Node2 -->
<g id="Node000002" class="node">
<title>Node2</title>
<g id="a_Node000002"><a xlink:href="namespacebattery_v2.html#a12a82ab0f3070f3f3081ff6589fd929b" target="_top" xlink:title=" ">
<polygon fill="white" stroke="#666666" points="310.25,-107 177.25,-107 177.25,-75 310.25,-75 310.25,-107"/>
<text text-anchor="start" x="185.25" y="-93.5" font-family="Helvetica,sans-Serif" font-size="10.00">batteryV2.sample_extreme</text>
<text text-anchor="middle" x="243.75" y="-81.5" font-family="Helvetica,sans-Serif" font-size="10.00">_inputs</text>
</a>
</g>
</g>
<!-- Node1&#45;&gt;Node2 -->
<g id="edge1_Node000001_Node000002" class="edge">
<title>Node1&#45;&gt;Node2</title>
<g id="a_edge1_Node000001_Node000002"><a xlink:title=" ">
<path fill="none" stroke="#63b8ff" d="M141.72,-76.24C149.63,-77.4 157.71,-78.58 165.7,-79.74"/>
<polygon fill="#63b8ff" stroke="#63b8ff" points="165,-83.18 175.4,-81.16 166.01,-76.25 165,-83.18"/>
</a>
</g>
</g>
<!-- Node3 -->
<g id="Node000003" class="node">
<title>Node3</title>
<g id="a_Node000003"><a xlink:href="namespacebattery_v2.html#aecfb42e205fe14aa239afe1e5f5981cb" target="_top" xlink:title=" ">
<polygon fill="white" stroke="#666666" points="292.62,-57 194.88,-57 194.88,-25 292.62,-25 292.62,-57"/>
<text text-anchor="start" x="202.88" y="-43.5" font-family="Helvetica,sans-Serif" font-size="10.00">batteryV2.simulate</text>
<text text-anchor="middle" x="243.75" y="-31.5" font-family="Helvetica,sans-Serif" font-size="10.00">_mission</text>
</a>
</g>
</g>
<!-- Node1&#45;&gt;Node3 -->
<g id="edge2_Node000001_Node000003" class="edge">
<title>Node1&#45;&gt;Node3</title>
<g id="a_edge2_Node000001_Node000003"><a xlink:title=" ">
<path fill="none" stroke="#63b8ff" d="M141.72,-55.76C155.57,-53.74 169.97,-51.63 183.42,-49.67"/>
<polygon fill="#63b8ff" stroke="#63b8ff" points="183.57,-53.18 192.96,-48.27 182.56,-46.26 183.57,-53.18"/>
</a>
</g>
</g>
<!-- Node4 -->
<g id="Node000004" class="node">
<title>Node4</title>
<g id="a_Node000004"><a xlink:href="namespacebattery_v2.html#affe6e1176611f2db495c2495e6bdd6ec" target="_top" xlink:title=" ">
<polygon fill="white" stroke="#666666" points="460.12,-82 362.38,-82 362.38,-50 460.12,-50 460.12,-82"/>
<text text-anchor="start" x="370.38" y="-68.5" font-family="Helvetica,sans-Serif" font-size="10.00">batteryV2.effective</text>
<text text-anchor="middle" x="411.25" y="-56.5" font-family="Helvetica,sans-Serif" font-size="10.00">_capacity_wh</text>
</a>
</g>
</g>
<!-- Node3&#45;&gt;Node4 -->
<g id="edge3_Node000003_Node000004" class="edge">
<title>Node3&#45;&gt;Node4</title>
<g id="a_edge3_Node000003_Node000004"><a xlink:title=" ">
<path fill="none" stroke="#63b8ff" d="M293.06,-48.3C311.08,-51.02 331.76,-54.14 350.67,-57"/>
<polygon fill="#63b8ff" stroke="#63b8ff" points="349.97,-60.43 360.38,-58.47 351.01,-53.51 349.97,-60.43"/>
</a>
</g>
</g>
<!-- Node5 -->
<g id="Node000005" class="node">
<title>Node5</title>
<g id="a_Node000005"><a xlink:href="namespacebattery_v2.html#af248bd08982771567965a793c77a9ab3" target="_top" xlink:title=" ">
<polygon fill="white" stroke="#666666" points="476.25,-32 346.25,-32 346.25,0 476.25,0 476.25,-32"/>
<text text-anchor="start" x="354.25" y="-18.5" font-family="Helvetica,sans-Serif" font-size="10.00">batteryV2.sample_random</text>
<text text-anchor="middle" x="411.25" y="-6.5" font-family="Helvetica,sans-Serif" font-size="10.00">_inputs</text>
</a>
</g>
</g>
<!-- Node3&#45;&gt;Node5 -->
<g id="edge4_Node000003_Node000005" class="edge">
<title>Node3&#45;&gt;Node5</title>
<g id="a_edge4_Node000003_Node000005"><a xlink:title=" ">
<path fill="none" stroke="#63b8ff" d="M293.06,-33.7C306.09,-31.73 320.5,-29.56 334.63,-27.42"/>
<polygon fill="#63b8ff" stroke="#63b8ff" points="335.01,-30.91 344.37,-25.95 333.96,-23.98 335.01,-30.91"/>
</a>
</g>
</g>
</g>
</svg>
