<?xml version="1.0" encoding="UTF-8" standalone="no"?>
<!DOCTYPE svg PUBLIC "-//W3C//DTD SVG 1.1//EN"
 "http://www.w3.org/Graphics/SVG/1.1/DTD/svg11.dtd">
<!-- Generated by graphviz version 12.2.1 (20241206.2353)
 -->
<!-- Title: batteryV2.process_generator Pages: 1 -->
<svg width="449pt" height="90pt"
 viewBox="0.00 0.00 449.00 90.00" xmlns="http://www.w3.org/2000/svg" xmlns:xlink="http://www.w3.org/1999/xlink">
<g id="graph0" class="graph" transform="scale(1 1) rotate(0) translate(4 86)">
<title>batteryV2.process_generator</title>
<!-- Node1 -->
<g id="Node000001" class="node">
<title>Node1</title>
<g id="a_Node000001"><a xlink:title=" ">
<polygon fill="#999999" stroke="#666666" points="141.25,-54 0,-54 0,-34 141.25,-34 141.25,-54"/>
<text text-anchor="middle" x="70.62" y="-40.5" font-family="Helvetica,sans-Serif" font-size="10.00">batteryV2.process_generator</text>
</a>
</g>
</g>
<!-- Node2 -->
<g id="Node000002" class="node">
<title>Node2</title>
<g id="a_Node000002"><a xlink:href="namespacebattery_v2.html#af248bd08982771567965a793c77a9ab3" target="_top" xlink:title=" ">
<polygon fill="white" stroke="#666666" points="441,-82 311,-82 311,-50 441,-50 441,-82"/>
<text text-anchor="start" x="319" y="-68.5" font-family="Helvetica,sans-Serif" font-size="10.00">batteryV2.sample_random</text>
<text text-anchor="middle" x="376" y="-56.5" font-family="Helvetica,sans-Serif" font-size="10.00">_inputs</text>
</a>
</g>
</g>
<!-- Node1&#45;&gt;Node2 -->
<g id="edge1_Node000001_Node000002" class="edge">
<title>Node1&#45;&gt;Node2</title>
<g id="a_edge1_Node000001_Node000002"><a xlink:title=" ">
<path fill="none" stroke="#63b8ff" d="M141.61,-49.07C188.75,-52.49 250.9,-57 299.21,-60.5"/>
<polygon fill="#63b8ff" stroke="#63b8ff" points="298.81,-63.98 309.04,-61.22 299.32,-57 298.81,-63.98"/>
</a>
</g>
</g>
<!-- Node3 -->
<g id="Node000003" class="node">
<title>Node3</title>
<g id="a_Node000003"><a xlink:href="namespacebattery_v2.html#aecfb42e205fe14aa239afe1e5f5981cb" target="_top" xlink:title=" ">
<polygon fill="white" stroke="#666666" points="275,-38 177.25,-38 177.25,-6 275,-6 275,-38"/>
<text text-anchor="start" x="185.25" y="-24.5" font-family="Helvetica,sans-Serif" font-size="10.00">batteryV2.simulate</text>
<text text-anchor="middle" x="226.12" y="-12.5" font-family="Helvetica,sans-Serif" font-size="10.00">_mission</text>
</a>
</g>
</g>
<!-- Node1&#45;&gt;Node3 -->
<g id="edge2_Node000001_Node000003" class="edge">
<title>Node1&#45;&gt;Node3</title>
<g id="a_edge2_Node000001_Node000003"><a xlink:title=" ">
<path fill="none" stroke="#63b8ff" d="M141.64,-33.97C149.71,-32.81 157.89,-31.64 165.8,-30.5"/>
<polygon fill="#63b8ff" stroke="#63b8ff" points="166.27,-33.97 175.67,-29.09 165.27,-27.04 166.27,-33.97"/>
</a>
</g>
</g>
<!-- Node3&#45;&gt;Node2 -->
<g id="edge4_Node000003_Node000002" class="edge">
<title>Node3&#45;&gt;Node2</title>
<g id="a_edge4_Node000003_Node000002"><a xlink:title=" ">
<path fill="none" stroke="#63b8ff" d="M275.14,-36.29C285.94,-39.5 297.58,-42.96 308.97,-46.35"/>
<polygon fill="#63b8ff" stroke="#63b8ff" points="307.75,-49.64 318.33,-49.14 309.75,-42.93 307.75,-49.64"/>
</a>
</g>
</g>
<!-- Node4 -->
<g id="Node000004" class="node">
<title>Node4</title>
<g id="a_Node000004"><a xlink:href="namespacebattery_v2.html#affe6e1176611f2db495c2495e6bdd6ec" target="_top" xlink:title=" ">
<polygon fill="white" stroke="#666666" points="424.88,-32 327.12,-32 327.12,0 424.88,0 424.88,-32"/>
<text text-anchor="start" x="335.12" y="-18.5" font-family="Helvetica,sans-Serif" font-size="10.00">batteryV2.effective</text>
<text text-anchor="middle" x="376" y="-6.5" font-family="Helvetica,sans-Serif" font-size="10.00">_capacity_wh</text>
</a>
</g>
</g>
<!-- Node3&#45;&gt;Node4 -->
<g id="edge3_Node000003_Node000004" class="edge">
<title>Node3&#45;&gt;Node4</title>
<g id="a_edge3_Node000003_Node000004"><a xlink:title=" ">
<path fill="none" stroke="#63b8ff" d="M275.14,-20.05C288.05,-19.53 302.17,-18.96 315.62,-18.41"/>
<polygon fill="#63b8ff" stroke="#63b8ff" points="315.36,-21.92 325.21,-18.02 315.08,-14.93 315.36,-21.92"/>
</a>
</g>
</g>
</g>
</svg>
